<svg xmlns="http://www.w3.org/2000/svg" viewBox="0 0 960 320" role="img" aria-labelledby="title desc">
  <title id="title">LedgerFlow Logo</title>
  <desc id="desc">A flowing ledger mark with bars and an arrow.</desc>
  <defs>
    <linearGradient id="bg" x1="0%" y1="0%" x2="100%" y2="100%">
      <stop offset="0%" stop-color="#0B1F33" />
      <stop offset="100%" stop-color="#103B5F" />
    </linearGradient>
    <linearGradient id="ink" x1="0%" y1="0%" x2="100%" y2="0%">
      <stop offset="0%" stop-color="#4AD0FF" />
      <stop offset="100%" stop-color="#6DFFB1" />
    </linearGradient>
    <linearGradient id="accent" x1="0%" y1="0%" x2="100%" y2="100%">
      <stop offset="0%" stop-color="#7AD8FF" />
      <stop offset="100%" stop-color="#B9FFE0" />
    </linearGradient>
    <filter id="softShadow" x="-20%" y="-20%" width="140%" height="140%">
      <feDropShadow dx="0" dy="8" stdDeviation="10" flood-color="#02111f" flood-opacity="0.35" />
    </filter>
  </defs>

  <rect width="960" height="320" rx="28" fill="url(#bg)" />

  <g transform="translate(40 40)">
    <rect x="0" y="0" width="240" height="240" rx="28" fill="#0F2E49" stroke="#2E5F84" stroke-width="2" />

    <path d="M24 62h192M24 106h192M24 150h148M24 194h108" stroke="#225073" stroke-width="2" opacity="0.55" />

    <rect x="36" y="170" width="20" height="38" rx="4" fill="#3FA8D7" />
    <rect x="66" y="148" width="20" height="60" rx="4" fill="#52BBE8" />
    <rect x="96" y="124" width="20" height="84" rx="4" fill="#6CCCF4" />
    <rect x="126" y="96" width="20" height="112" rx="4" fill="#83DBFF" />

    <path d="M44 138 C84 120, 106 118, 136 102 C162 88, 186 68, 206 48" fill="none" stroke="url(#ink)" stroke-width="10" stroke-linecap="round" filter="url(#softShadow)" />
    <path d="M194 50l22-6-8 22" fill="none" stroke="url(#accent)" stroke-width="8" stroke-linecap="round" stroke-linejoin="round" />
  </g>

  <g transform="translate(320 72)">
    <text x="0" y="78" fill="#E8F5FF" font-family="Avenir Next, Segoe UI, Helvetica, Arial, sans-serif" font-size="78" font-weight="700" letter-spacing="1">LedgerFlow</text>
    <text x="4" y="132" fill="#95B7CF" font-family="Avenir Next, Segoe UI, Helvetica, Arial, sans-serif" font-size="26" font-weight="500" letter-spacing="3">LOCAL FIRST FINANCIAL TRUTH</text>
  </g>
</svg>

