<svg xmlns="http://www.w3.org/2000/svg" viewBox="0 0 960 320" role="img" aria-labelledby="title desc">
  <title id="title">LedgerFlow Logo</title>
  <desc id="desc">A local-first finance mark with ledger rows and a rising flow curve.</desc>
  <defs>
    <linearGradient id="bg" x1="0" y1="0" x2="1" y2="1">
      <stop offset="0%" stop-color="#0f1f2e" />
      <stop offset="100%" stop-color="#1e3d56" />
    </linearGradient>
    <linearGradient id="line" x1="0" y1="0" x2="1" y2="0">
      <stop offset="0%" stop-color="#2ec5ff" />
      <stop offset="100%" stop-color="#6fffa8" />
    </linearGradient>
    <linearGradient id="card" x1="0" y1="0" x2="1" y2="1">
      <stop offset="0%" stop-color="#153048" />
      <stop offset="100%" stop-color="#214f6f" />
    </linearGradient>
    <filter id="glow" x="-20%" y="-20%" width="140%" height="140%">
      <feDropShadow dx="0" dy="4" stdDeviation="8" flood-color="#061220" flood-opacity="0.45" />
    </filter>
  </defs>

  <rect width="960" height="320" rx="26" fill="url(#bg)" />

  <g transform="translate(44 44)">
    <rect x="0" y="0" width="232" height="232" rx="30" fill="url(#card)" stroke="#4b7a98" stroke-width="2" />

    <g opacity="0.6" stroke="#7ea7bf" stroke-width="2">
      <line x1="24" y1="58" x2="206" y2="58" />
      <line x1="24" y1="90" x2="206" y2="90" />
      <line x1="24" y1="122" x2="206" y2="122" />
      <line x1="24" y1="154" x2="206" y2="154" />
      <line x1="24" y1="186" x2="150" y2="186" />
    </g>

    <g>
      <rect x="36" y="164" width="16" height="38" rx="4" fill="#57b4e1" />
      <rect x="62" y="146" width="16" height="56" rx="4" fill="#6dc2ea" />
      <rect x="88" y="130" width="16" height="72" rx="4" fill="#83d1f3" />
      <rect x="114" y="100" width="16" height="102" rx="4" fill="#99ddfb" />
    </g>

    <path d="M34 142 C68 136, 92 122, 124 102 C150 86, 174 62, 198 42" fill="none" stroke="url(#line)" stroke-width="10" stroke-linecap="round" filter="url(#glow)" />
    <path d="M188 42l22-4-8 20" fill="none" stroke="#9fffc8" stroke-width="8" stroke-linecap="round" stroke-linejoin="round" />
  </g>

  <g transform="translate(314 72)">
    <text x="0" y="80" fill="#ecf6ff" font-family="Avenir Next, Segoe UI, Helvetica, Arial, sans-serif" font-size="78" font-weight="700" letter-spacing="0.6">LedgerFlow</text>
    <text x="3" y="132" fill="#98b8cc" font-family="Avenir Next, Segoe UI, Helvetica, Arial, sans-serif" font-size="24" font-weight="600" letter-spacing="2.2">LOCAL-FIRST MONEY TRUTH</text>
  </g>
</svg>
